<svg width="512" height="512" viewBox="0 0 512 512" fill="none" xmlns="http://www.w3.org/2000/svg">
<rect width="512" height="512" fill="#CAAE5F"/>
<path d="M258.76 439.68C226.76 439.68 198.44 432.96 173.8 419.52C149.16 406.08 129.96 386.72 116.2 361.44C102.44 336.16 95.56 306.08 95.56 271.2C95.56 248.48 98.92 226.4 105.64 204.96C112.68 183.2 123.08 163.52 136.84 145.92C150.92 128.32 168.36 114.4 189.16 104.16C210.28 93.6 234.76 88.32 262.6 88.32C274.12 88.32 285.8 89.44 297.64 91.68C309.48 93.6 320.84 96.64 331.72 100.8C342.92 104.64 353 109.28 361.96 114.72L360.04 91.68H386.44V201.6H369.16C367.88 181.44 362.44 164.48 352.84 150.72C343.56 136.64 331.4 125.92 316.36 118.56C301.32 111.2 284.52 107.52 265.96 107.52C249 107.52 233 111.36 217.96 119.04C203.24 126.4 190.12 136.96 178.6 150.72C167.4 164.16 158.6 180.16 152.2 198.72C145.8 217.28 142.6 237.76 142.6 260.16C142.6 290.24 148.04 317.12 158.92 340.8C169.8 364.48 184.84 383.04 204.04 396.48C223.56 409.92 245.96 416.64 271.24 416.64C279.88 416.64 288.84 415.84 298.12 414.24C307.72 412.64 317.16 410.08 326.44 406.56C336.04 402.72 345 398.08 353.32 392.64V334.08C353.32 326.4 353.32 318.72 353.32 311.04C353.32 303.04 353.32 295.2 353.32 287.52C347.88 287.84 342.28 288.16 336.52 288.48C330.76 288.8 325.16 289.12 319.72 289.44V268.32H428.2V284.16C419.24 284.16 412.36 286.56 407.56 291.36C402.76 295.84 399.4 301.44 397.48 308.16C395.56 314.56 394.44 320.96 394.12 327.36C393.8 333.44 393.64 338.08 393.64 341.28V414.72H380.68C375.56 414.72 368.52 415.68 359.56 417.6C350.6 419.52 340.36 422.72 328.84 427.2C318.92 431.04 307.4 434.08 294.28 436.32C281.16 438.56 269.32 439.68 258.76 439.68Z" fill="white"/>
</svg>
