<svg width="127" height="77" viewBox="0 0 127 77" fill="none" xmlns="http://www.w3.org/2000/svg">
<path d="M110.142 6.89402C104.145 7.38921 103.743 7.79039 103.248 13.788C102.753 7.79039 102.352 7.38921 96.3542 6.89402C102.352 6.39883 102.753 5.99765 103.248 0C103.743 5.99765 104.145 6.39883 110.142 6.89402Z" fill="white"/>
<path d="M48.3203 26.7665C48.3001 26.7061 48.28 26.6641 48.2598 26.6238C48.1373 26.4005 48.0164 26.1555 47.8738 25.9121C46.3697 23.1676 43.8888 21.4 41.1661 20.282C40.9227 20.1796 40.7397 20.0991 40.5148 20.0185C39.5193 19.6324 34.883 17.9454 27.6466 18.3718C27.4435 18.3718 27.2605 18.3919 27.1783 18.3919C12.2572 18.3919 0 31.1577 0 47.1162C0 63.0747 8.21173 76.0234 25.0246 76.0234C30.005 76.0234 34.314 74.8652 37.8307 72.8122C37.9935 72.7317 38.1765 72.589 38.3594 72.5067C42.2622 70.3313 45.9618 72.3238 46.8364 76.0234H47.162V45.6524C45.7789 47.4418 43.5228 48.4574 39.2944 48.4574H29.4561C28.1552 48.4574 27.0574 49.4327 26.9147 50.7336L26.5286 54.5558H26.7116L26.7519 54.3325C27.1178 50.8158 27.7272 48.7629 31.1028 48.7629H38.8479C40.2512 48.7629 41.3893 49.901 41.3893 51.3043V68.7467C41.3893 69.539 41.0234 70.3329 40.3519 70.7794C36.6523 73.3813 32.0982 74.3784 26.8946 74.3784C15.6933 74.3784 6.66741 63.0361 6.66741 47.0776C6.66741 31.1191 13.3348 18.6387 27.3814 18.6387C29.9631 18.6387 32.1587 19.2682 33.9883 20.2854C34.3744 20.4885 34.7404 20.7319 35.0862 20.977C37.4244 22.5834 39.1316 24.8193 40.3301 27.0552C40.3435 27.0686 40.3503 27.0821 40.3503 27.0955C41.2248 28.6818 41.8341 30.2664 42.2605 31.5874C42.4636 32.2169 43.2559 32.4418 43.7444 31.9936C45.371 30.4695 49.8226 33.0713 49.7001 30.4292V30.409L48.3169 26.7698L48.3203 26.7665Z" fill="white"/>
<path d="M100.626 27.5591L100.645 27.5781V27.5591H100.626Z" fill="white"/>
<path d="M115.588 75.168C114.226 75.5944 112.905 75.6364 111.603 75.1479C109.184 74.1525 108.329 71.3878 108.066 66.5081C108.005 65.4506 107.985 64.3125 107.963 63.072C107.923 60.7136 107.863 55.144 107.78 48.7603V27.9439C107.74 27.3346 107.638 26.7655 107.517 26.2368C107.028 23.9404 105.91 22.1913 104.163 21.0331C103.857 20.83 103.533 20.647 103.208 20.5043C103.188 20.4842 103.168 20.464 103.147 20.464C102.862 20.3214 102.558 20.2005 102.253 20.1182C101.947 19.9957 101.623 19.9151 101.298 19.8547V19.9151C101.175 19.895 101.034 19.8749 100.891 19.8749H100.831C100.608 19.8346 100.384 19.8144 100.159 19.8144H99.9362C99.8338 19.8144 99.7533 19.8144 99.6509 19.8346C98.5329 19.8547 97.3126 20.0981 96.0335 20.5463C95.6675 20.6688 95.3016 20.8098 94.9155 20.9727C91.1555 22.5791 87.7596 25.4042 84.7717 29.4496C84.7717 29.51 84.6912 29.6124 84.5686 29.7551C84.4461 29.9179 84.3454 30.0187 84.3051 30.0808L83.5934 31.1584L79.9138 36.6475C78.3897 38.9236 74.9536 38.5174 73.9783 35.976L69.9933 25.5687L69.1389 23.3126L68.2644 20.9743C68.2644 20.9743 67.8984 20.2828 67.3294 20.2828H51.4129C51.5354 20.506 51.6361 20.7293 51.7184 20.9743H57.857C59.2603 20.9743 60.5193 21.8489 61.0279 23.1498L63.2235 28.9846L63.6096 30.0019L70.5204 48.0536C70.9266 49.0708 70.7839 50.229 70.1947 51.1237L65.8237 57.6904C64.3196 59.9666 60.8432 59.5805 59.868 57.019L54.5015 42.9926L54.196 42.2003C54.1154 41.9972 50.3939 32.2193 49.704 30.4299V30.4098L48.3209 26.7706C48.3007 26.7101 48.2806 26.6682 48.2604 26.6279C48.2403 26.5876 48.2202 26.5473 48.2202 26.5053C48.1799 26.3828 48.1396 26.2821 48.0976 26.1998C47.9952 25.9766 47.9146 25.7735 47.8122 25.5704C47.2835 24.4524 46.5718 23.781 45.6787 22.9685C44.0723 21.4846 42.3652 20.7125 41.1667 20.2861H33.9906L35.0884 20.9777H35.6978C37.1011 20.9777 38.3399 21.8321 38.8485 23.1532L40.3324 27.0559C40.3458 27.0693 40.3525 27.0828 40.3525 27.0962L49.0729 49.8228L49.3784 50.6151L57.0832 70.7399L57.3887 71.5322L58.792 75.1915L59.0975 75.9637L63.2453 69.8855C63.8748 68.9706 63.9973 67.8124 63.6113 66.775L63.1429 65.5345C62.7367 64.5173 62.8794 63.3591 63.4686 62.4644L71.457 50.4506L71.5376 50.6134L73.0215 54.496L73.2448 55.1876L80.9496 75.1899V75.2503L81.2551 75.962L85.6866 69.4977L86.316 68.5023L98.5531 50.6739V49.5358L89.7303 62.4442C88.2062 64.7003 84.77 64.294 83.7948 61.7325L78.4686 47.6457L78.1429 46.9541V46.8735L77.2079 44.4546C76.8219 43.4374 76.9645 42.2993 77.5537 41.3845L81.0301 36.1405L82.9823 33.2735L83.0428 33.1929C84.4041 31.1198 85.8074 29.4328 87.2913 28.1722C88.7752 26.8914 90.1987 26.037 91.6003 25.5704C93.0036 25.102 94.3851 24.9812 95.7263 25.2246C96.7435 25.3874 97.7792 25.7332 98.7763 26.3022C98.6538 26.1998 98.5128 26.0991 98.3902 25.9967C98.5732 26.1193 98.7965 26.2603 98.9996 26.4231C98.9391 26.3828 98.8569 26.3425 98.7965 26.3207C98.919 26.3811 99.0197 26.4835 99.1423 26.6061C99.7717 27.2355 100.18 27.9674 100.423 28.7412C100.566 41.2838 100.769 59.9246 100.829 62.3435C100.952 67.5472 101.318 72.6703 108.737 75.5356C115.181 78.0368 120.508 73.3602 126.26 67.0587V66.3873C122.357 70.6761 118.881 74.1122 115.588 75.1697V75.168ZM100.646 27.5796L100.626 27.5595H100.646V27.5796Z" fill="white"/>
</svg>
